<?xml version="1.0" standalone="no"?><!DOCTYPE svg PUBLIC "-//W3C//DTD SVG 1.1//EN" "http://www.w3.org/Graphics/SVG/1.1/DTD/svg11.dtd"><svg t="1769148476942" class="icon" viewBox="0 0 1454 1024" version="1.1" xmlns="http://www.w3.org/2000/svg" p-id="11479" id="mx_n_1769148476944" data-spm-anchor-id="a313x.manage_type_mylikes.0.i82.e4af3a817W9h8c" xmlns:xlink="http://www.w3.org/1999/xlink" width="283.984375" height="200"><path d="M0 601.973841L725.528381 183.088762l725.528381 418.885079-725.528381 418.881016L0 601.973841z" fill="#cbecfd" p-id="11480" data-spm-anchor-id="a313x.manage_type_mylikes.0.i83.e4af3a817W9h8c" class=""></path><path d="M479.431111 121.364317l203.174603-117.300825 203.174603 117.300825V487.619048l-203.174603 117.304889-203.174603-117.304889V121.368381z" fill="#D3D9DF" p-id="11481" data-spm-anchor-id="a313x.manage_type_mylikes.0.i98.e4af3a817W9h8c" class=""></path><path d="M487.558095 124.91581v358.013968l195.047619 112.611555 195.047619-112.611555V124.91581l-195.047619-112.611556-195.047619 112.611556z m195.047619-121.994159l203.174603 117.300825V487.619048l-203.174603 117.304889-203.174603-117.304889V120.222476l203.174603-117.300825z" fill="#13227a" p-id="11482" data-spm-anchor-id="a313x.manage_type_mylikes.0.i90.e4af3a817W9h8c" class=""></path><path d="M487.570286 125.127111l195.035428-112.599365 195.035429 112.599365-195.035429 112.599365-195.035428-112.599365z" fill="#FFFFFF" p-id="11483"></path><path d="M682.605714 237.73054l195.579937-112.920381v358.863238l-195.579937 112.916317V237.73054z" fill="#13227a" p-id="11484" data-spm-anchor-id="a313x.manage_type_mylikes.0.i97.e4af3a817W9h8c" class=""></path><path d="M701.106794 253.785397l29.305904-16.920381v37.404444l-29.305904 16.920381v-37.404444zM743.736889 229.172825l29.309968-16.920381v37.404445l-29.309968 16.920381v-37.404445zM786.371048 204.55619l29.305904-16.916317v37.400381l-29.305904 16.920381v-37.400381zM828.997079 179.951746l29.305905-16.920381v37.404445l-29.305905 16.92038v-37.404444zM701.106794 308.475937l29.305904-16.920381v37.400381l-29.305904 16.924444v-37.404444zM701.106794 363.162413l29.305904-16.920381v37.400381l-29.305904 16.924444v-37.404444zM701.106794 417.848889l29.305904-16.920381v37.404444l-29.305904 16.920381v-37.404444zM701.106794 472.535365l29.305904-16.920381v37.404445l-29.305904 16.920381v-37.404445zM701.106794 527.225905l29.305904-16.920381v37.404444l-29.305904 16.920381v-37.404444zM743.736889 283.859302l29.309968-16.920381v37.404444l-29.309968 16.920381v-37.404444zM743.736889 338.545778l29.309968-16.920381v37.404444l-29.309968 16.920381v-37.404444zM743.736889 393.236317l29.309968-16.92038v37.404444l-29.309968 16.920381v-37.404445zM743.736889 447.922794l29.309968-16.920381v37.404444l-29.309968 16.920381v-37.404444zM743.736889 502.613333l29.309968-16.920381v37.404445l-29.309968 16.920381v-37.404445zM786.371048 259.250794l29.305904-16.920381v37.400381l-29.305904 16.920381V259.250794zM786.371048 313.93727l29.305904-16.920381v37.400381l-29.305904 16.920381v-37.400381zM786.371048 368.623746l29.305904-16.920381v37.400381l-29.305904 16.920381v-37.400381zM786.371048 423.310222l29.305904-16.920381v37.400381l-29.305904 16.920381v-37.400381zM786.371048 478.000762l29.305904-16.920381v37.400381l-29.305904 16.920381v-37.400381zM828.997079 234.634159l29.305905-16.920381v37.404444l-29.305905 16.920381v-37.404444zM828.997079 289.324698l29.305905-16.920381v37.404445l-29.305905 16.920381V289.320635zM828.997079 344.015238l29.305905-16.924444V364.495238l-29.305905 16.920381v-37.404444zM828.997079 398.697651l29.305905-16.920381v37.404444l-29.305905 16.920381v-37.404444zM828.997079 453.38819l29.305905-16.92038v37.404444l-29.305905 16.920381v-37.404445z" fill="#b2e2fc" opacity=".6" p-id="11485" data-spm-anchor-id="a313x.manage_type_mylikes.0.i86.e4af3a817W9h8c" class=""></path><path d="M298.963302 374.62146l149.739682-86.450793 149.739683 86.450793v269.929651l-149.739683 86.454857-149.739682-86.454857V374.62146z" fill="#8992c8" p-id="11486" data-spm-anchor-id="a313x.manage_type_mylikes.0.i80.e4af3a817W9h8c" class=""></path><path d="M307.090286 379.631746v260.226032l141.612698 81.761524 141.612699-81.761524v-260.226032l-141.612699-81.75746-141.612698 81.75746z m141.612698-91.144127l149.739683 86.450794v269.612698l-149.739683 86.454857-149.739682-86.454857V374.938413l149.739682-86.450794z" fill="#8992c8" p-id="11487" data-spm-anchor-id="a313x.manage_type_mylikes.0.i84.e4af3a817W9h8c" class=""></path><path d="M308.581587 379.48546l140.775619-81.277968 139.597207 80.599365-140.771556 81.273905L308.581587 379.48546z" fill="#FFFFFF" p-id="11488"></path><path d="M448.707048 460.38146l141.795555-81.867174v264.480508l-141.795555 81.867174v-264.480508z" fill="#EDF0F2" p-id="11489" data-spm-anchor-id="a313x.manage_type_mylikes.0.i85.e4af3a817W9h8c" class=""></path><path d="M317.354667 404.252444l21.59746 12.470858v27.56673l-21.59746-12.470857v-27.566731zM348.773587 422.395937l21.601524 12.470857v27.56673l-21.601524-12.470857v-27.56673zM380.184381 440.535365l21.601524 12.470857v27.56673l-21.601524-12.470857v-27.56673zM411.607365 458.67073l21.59746 12.470857v27.56673l-21.59746-12.470857v-27.56673zM317.354667 444.562286l21.59746 12.470857v27.56673l-21.59746-12.470857v-27.56673zM317.354667 484.864l21.59746 12.470857v27.56673l-21.59746-12.470857v-27.56673zM317.354667 525.169778l21.59746 12.470857v27.56673l-21.59746-12.470857v-27.56673zM317.354667 565.475556l21.59746 12.470857v27.56673l-21.59746-12.470857v-27.56673zM317.354667 605.781333l21.59746 12.470857v27.566731l-21.59746-12.470858v-27.56673zM348.769524 462.697651l21.601524 12.470857v27.56673l-21.601524-12.470857v-27.56673zM348.769524 503.003429l21.601524 12.470857v27.56673l-21.601524-12.470857v-27.56673zM348.773587 543.309206l21.601524 12.470857v27.566731l-21.601524-12.470857v-27.566731zM348.773587 583.614984l21.601524 12.470857v27.56673l-21.601524-12.470857v-27.56673zM348.769524 623.920762l21.601524 12.470857v27.56673l-21.601524-12.470857v-27.56673zM380.184381 480.837079l21.601524 12.470858v27.56673l-21.601524-12.470857v-27.566731zM380.192508 521.142857l21.59746 12.470857v27.56673l-21.601524-12.470857v-27.56673zM380.192508 561.448635l21.59746 12.470857v27.56673l-21.601524-12.470857v-27.56673zM380.192508 601.750349l21.59746 12.470857v27.566731l-21.601524-12.470858v-27.56673zM380.192508 642.06019l21.59746 12.470858v27.56673l-21.601524-12.470857v-27.566731zM411.607365 498.976508l21.59746 12.470857v27.56673l-21.59746-12.470857v-27.56673zM411.607365 539.286349l21.59746 12.470857v27.562667l-21.59746-12.466794v-27.56673zM411.607365 579.588063l21.59746 12.470858v27.562666l-21.59746-12.466793v-27.566731zM411.607365 619.893841l21.59746 12.470857v27.562667l-21.59746-12.470857v-27.562667zM411.607365 660.199619l21.59746 12.470857v27.562667l-21.59746-12.470857v-27.562667z" fill="#ffffff" opacity=".6" p-id="11490" data-spm-anchor-id="a313x.manage_type_mylikes.0.i81.e4af3a817W9h8c" class=""></path><path d="M618.674794 848.97727c-68.022857-39.273651-68.022857-102.948571 0-142.222222l262.818539-151.738921c68.022857-39.273651 178.310095-39.273651 246.332953 0 68.026921 39.273651 68.026921 102.948571 0 142.222222l-262.814476 151.738921c-68.022857 39.273651-178.310095 39.273651-246.337016 0z" fill="#8992c8" p-id="11491" data-spm-anchor-id="a313x.manage_type_mylikes.0.i94.e4af3a817W9h8c" class=""></path><path d="M650.248127 746.162794l299.503746-172.917842 146.501079 84.585651-299.499682 172.913778-146.505143-84.581587z" fill="#c8db8c" p-id="11492" data-spm-anchor-id="a313x.manage_type_mylikes.0.i91.e4af3a817W9h8c" class=""></path><path d="M202.890159 84.557206h11.215238v512.711111h-11.215238z" fill="#91A1AF" p-id="11493"></path><path d="M216.901079 169.638603V99.202032l5.924572-1.202794a355.592127 355.592127 0 0 1 113.505524-4.518603v74.426921a268.856889 268.856889 0 0 0-114.115048 0.548571l-5.315048 1.178413z" fill="#d81e06" p-id="11494" data-spm-anchor-id="a313x.manage_type_mylikes.0.i95.e4af3a817W9h8c" class=""></path></svg>