<?xml version="1.0" standalone="no"?><!DOCTYPE svg PUBLIC "-//W3C//DTD SVG 1.1//EN" "http://www.w3.org/Graphics/SVG/1.1/DTD/svg11.dtd"><svg t="1783575770291" class="icon" viewBox="0 0 1024 1024" version="1.1" xmlns="http://www.w3.org/2000/svg" p-id="63818" xmlns:xlink="http://www.w3.org/1999/xlink" width="64" height="64"><path d="M511.999716 512.000284m-511.999716 0a511.999716 511.999716 0 1 0 1023.999431 0 511.999716 511.999716 0 1 0-1023.999431 0Z" fill="#f2f3f9" p-id="63819" data-spm-anchor-id="a313x.search_index.0.i11.4b2a3a81sHxk6d" class=""></path><path d="M633.812981 463.858089c0 3.413331-2.680887 6.10133-6.094219 6.10133h-33.635536a6.03733 6.03733 0 0 1-6.094219-6.094219v-29.013317c0-3.40622 2.680887-6.087108 6.094219-6.087108h33.635536c3.413331 0 6.094219 2.680887 6.094219 6.094219v29.006206z m0 85.802619c0 3.413331-2.680887 6.094219-6.094219 6.094219h-33.635536a6.03733 6.03733 0 0 1-6.094219-6.094219v-28.764428c0-3.413331 2.680887-6.094219 6.094219-6.094219h33.635536c3.413331 0 6.094219 2.687999 6.094219 6.094219v28.764428z m0 86.044397c0 3.413331-2.680887 6.087108-6.094219 6.087107h-33.635536a6.030219 6.030219 0 0 1-6.094219-6.094218v-28.757318c0-3.413331 2.680887-6.094219 6.094219-6.094219h33.635536c3.413331 0 6.094219 2.680887 6.094219 6.094219v28.757318zM441.500199 464.099867c0 3.413331-2.680887 6.094219-6.094219 6.094218h-32.903093a6.03733 6.03733 0 0 1-6.094218-6.094218v-29.247984c0-3.413331 2.680887-6.094219 6.094218-6.094219h33.635537c3.413331 0 6.094219 2.680887 6.094219 6.094219l-0.732444 29.247984z m0 85.795508c0 3.413331-2.680887 6.094219-6.094219 6.094218h-32.903093a6.030219 6.030219 0 0 1-6.094218-6.094218v-29.006207c0-3.413331 2.680887-6.094219 6.094218-6.094218h33.635537c3.413331 0 6.094219 2.687999 6.094219 6.094218l-0.732444 29.013318z m0 86.044396c0 3.413331-2.680887 6.094219-6.094219 6.094219h-32.903093a6.030219 6.030219 0 0 1-6.094218-6.094219v-28.51554c0-3.413331 2.680887-6.094219 6.094218-6.094218h33.635537c3.413331 0 6.094219 2.673776 6.094219 6.087107l-0.732444 28.51554z m274.204292 42.894199h-23.395542V412.430562c0-7.793773-4.629331-14.620436-11.697772-18.033768l-116.757268-60.942188a24.988431 24.988431 0 0 0-20.472878 0c-7.310218 2.929776-11.94666 10.005328-11.697771 48.511973v327.345596h-23.395542V349.547041c0-39.480867 0-45.333308-8.775107-48.49775a29.987539 29.987539 0 0 0-23.402653 0L342.542032 371.484807a20.792877 20.792877 0 0 0-11.704882 18.524434v289.080728h-23.395543c-5.852441 0-8.775106 3.164443-8.775106 6.087108v33.884426c0 2.922665 2.922665 6.094219 8.775106 6.094219h408.262884c2.687999 0 8.291551-3.171554 8.775107-6.094219v-33.635537c0.732444-3.655109-5.603552-6.584885-8.775107-6.584885z" fill="#594d9c" p-id="63820" data-spm-anchor-id="a313x.search_index.0.i12.4b2a3a81sHxk6d" class=""></path></svg>